<svg width="36" height="16" viewBox="0 0 36 16" fill="none" xmlns="http://www.w3.org/2000/svg">
<path d="M1 7C0.447715 7 -4.82823e-08 7.44772 0 8C4.82823e-08 8.55228 0.447715 9 1 9L1 7ZM35.7071 8.7071C36.0976 8.31658 36.0976 7.68341 35.7071 7.29289L29.3431 0.92893C28.9526 0.538405 28.3195 0.538406 27.9289 0.92893C27.5384 1.31945 27.5384 1.95262 27.9289 2.34314L33.5858 8L27.9289 13.6569C27.5384 14.0474 27.5384 14.6805 27.9289 15.0711C28.3195 15.4616 28.9526 15.4616 29.3431 15.0711L35.7071 8.7071ZM1 9L35 9L35 7L1 7L1 9Z"/>
</svg>
