<svg width="965" height="700" viewBox="0 0 965 700" fill="none" xmlns="http://www.w3.org/2000/svg">
<path fill-rule="evenodd" clip-rule="evenodd" d="M854.963 0C914.82 0 963.786 56.8234 963.786 126.285C963.786 195.747 914.82 252.571 854.963 252.571C842.955 252.571 833.121 263.985 833.121 277.919C833.121 291.853 842.955 303.265 854.963 303.265H911.906C941.105 303.265 965 330.995 965 364.88C965 398.765 941.105 426.494 911.906 426.494C886.651 426.494 865.987 450.475 865.987 479.782C865.987 533.252 828.289 577 782.211 577H290.425C230.567 577 181.601 520.177 181.601 450.715C181.601 381.253 230.567 324.429 290.425 324.429H300.95C312.959 324.429 322.793 313.031 322.793 299.081C322.793 285.147 312.97 273.735 300.95 273.735H230.094C200.893 273.735 177 246.005 177 212.12C177 178.276 200.834 150.576 229.984 150.506H287.001C312.255 150.506 332.92 126.525 332.92 97.2181C332.92 43.748 370.618 0 416.695 0H854.963V0Z" fill="url(#paint0_linear_513_69)"/>
<path fill-rule="evenodd" clip-rule="evenodd" d="M776.064 134.698H783.082C784.779 134.698 786.146 133.318 786.146 131.634V124.615C786.146 122.918 784.766 121.551 783.082 121.551H776.064C775.252 121.554 774.475 121.878 773.901 122.452C773.327 123.026 773.003 123.804 773 124.615V131.634C772.999 132.036 773.078 132.435 773.231 132.807C773.385 133.18 773.611 133.518 773.895 133.802C774.18 134.087 774.518 134.313 774.89 134.466C775.262 134.62 775.661 134.699 776.064 134.698V134.698ZM800.401 134.698H807.419C808.231 134.695 809.009 134.371 809.582 133.797C810.156 133.223 810.48 132.445 810.483 131.634V124.615C810.483 122.918 809.103 121.551 807.419 121.551H800.401C799.589 121.554 798.811 121.878 798.237 122.452C797.664 123.026 797.34 123.804 797.337 124.615V131.634C797.34 132.445 797.664 133.223 798.237 133.797C798.811 134.371 799.589 134.695 800.401 134.698V134.698ZM824.753 134.698H831.771C832.583 134.695 833.36 134.371 833.934 133.797C834.508 133.223 834.832 132.445 834.835 131.634V124.615C834.835 122.918 833.455 121.551 831.771 121.551H824.753C823.941 121.554 823.163 121.878 822.589 122.452C822.015 123.026 821.692 123.804 821.689 124.615V131.634C821.688 132.036 821.766 132.435 821.92 132.807C822.074 133.18 822.299 133.518 822.584 133.802C822.869 134.087 823.207 134.313 823.579 134.466C823.951 134.62 824.35 134.699 824.753 134.698V134.698ZM849.089 134.698H856.108C856.92 134.695 857.697 134.371 858.271 133.797C858.845 133.223 859.169 132.445 859.172 131.634V124.615C859.172 122.918 857.792 121.551 856.108 121.551H849.089C847.393 121.551 846.011 122.931 846.011 124.615V131.634C846.019 132.446 846.347 133.223 846.923 133.796C847.499 134.369 848.277 134.693 849.089 134.698V134.698ZM873.428 134.698H880.447C882.144 134.698 883.526 133.318 883.526 131.634V124.615C883.526 122.918 882.144 121.551 880.447 121.551H873.428C872.617 121.554 871.839 121.878 871.265 122.452C870.691 123.026 870.367 123.804 870.364 124.615V131.634C870.367 132.445 870.691 133.223 871.265 133.797C871.839 134.371 872.617 134.695 873.428 134.698V134.698ZM801.293 108.161H808.312C809.994 108.161 811.376 106.779 811.376 105.097V98.062C811.372 97.2507 811.048 96.4736 810.474 95.9C809.9 95.3265 809.123 95.003 808.312 95H801.293C799.594 95 798.229 96.3801 798.229 98.062V105.082C798.227 105.486 798.304 105.886 798.457 106.26C798.61 106.634 798.836 106.974 799.12 107.26C799.405 107.546 799.744 107.773 800.117 107.928C800.49 108.082 800.89 108.162 801.293 108.161V108.161ZM825.63 108.161H832.649C833.46 108.158 834.238 107.835 834.812 107.261C835.386 106.687 835.71 105.909 835.713 105.097V98.062C835.709 97.2507 835.385 96.4736 834.811 95.9C834.237 95.3265 833.46 95.003 832.649 95H825.63C824.819 95.003 824.042 95.3265 823.468 95.9C822.894 96.4736 822.57 97.2507 822.566 98.062V105.082C822.564 105.486 822.641 105.886 822.794 106.26C822.947 106.634 823.172 106.974 823.457 107.26C823.742 107.546 824.081 107.773 824.454 107.928C824.827 108.082 825.226 108.162 825.63 108.161V108.161ZM849.967 108.161H856.986C858.684 108.161 860.064 106.779 860.064 105.097V98.062C860.064 96.3801 858.684 95 856.986 95H849.967C849.156 95.003 848.378 95.3265 847.804 95.9C847.231 96.4736 846.907 97.2507 846.903 98.062V105.082C846.903 106.779 848.285 108.161 849.967 108.161V108.161ZM824.753 163.208H831.771C832.583 163.206 833.36 162.882 833.934 162.308C834.508 161.734 834.832 160.956 834.835 160.145V153.124C834.835 151.427 833.455 150.06 831.771 150.06H824.753C823.941 150.063 823.163 150.387 822.589 150.961C822.015 151.535 821.692 152.313 821.689 153.124V160.145C821.688 160.547 821.766 160.946 821.92 161.318C822.074 161.69 822.299 162.029 822.584 162.313C822.869 162.598 823.207 162.824 823.579 162.977C823.951 163.131 824.35 163.209 824.753 163.208V163.208ZM849.089 163.208H856.108C856.92 163.206 857.697 162.882 858.271 162.308C858.845 161.734 859.169 160.956 859.172 160.145V153.124C859.172 151.427 857.792 150.06 856.108 150.06H849.089C847.393 150.06 846.011 151.442 846.011 153.124V160.145C846.019 160.957 846.347 161.733 846.923 162.307C847.499 162.88 848.277 163.204 849.089 163.208V163.208Z" fill="#262E36"/>
<path d="M112.328 588.899L119.892 682.977H172.231L179.811 588.899H112.328Z" fill="#676841"/>
<path d="M108 580.416H184.941V594.128H108V580.416ZM113.272 580.416H179.67L175.793 565H117.165L113.272 580.416Z" fill="#EEEEEE"/>
<path d="M131.082 636.812C131.081 638.833 131.479 640.835 132.252 642.702C133.026 644.569 134.159 646.265 135.588 647.694C137.017 649.123 138.714 650.257 140.581 651.03C142.448 651.803 144.449 652.201 146.47 652.201C148.491 652.201 150.492 651.803 152.359 651.03C154.226 650.257 155.923 649.123 157.352 647.694C158.781 646.265 159.914 644.569 160.688 642.702C161.461 640.835 161.859 638.833 161.858 636.812C161.859 634.791 161.461 632.79 160.688 630.923C159.915 629.056 158.782 627.359 157.353 625.93C155.923 624.501 154.227 623.367 152.36 622.594C150.492 621.821 148.491 621.424 146.47 621.424C144.449 621.424 142.448 621.822 140.581 622.595C138.714 623.368 137.017 624.501 135.588 625.93C134.159 627.359 133.026 629.056 132.252 630.923C131.479 632.79 131.081 634.792 131.082 636.812V636.812Z" fill="#EEEEEE"/>
<path fill-rule="evenodd" clip-rule="evenodd" d="M370.139 135.622V46.6771C370.139 37.4629 362.691 30 353.496 30H253.643C244.448 30 237 37.4629 237 46.6771V135.622C236.999 138.595 237.792 141.513 239.298 144.076C240.804 146.639 242.967 148.753 245.564 150.199L295.49 177.99C297.961 179.368 300.744 180.091 303.573 180.091C306.403 180.091 309.186 179.368 311.657 177.99L361.585 150.199C364.179 148.75 366.339 146.635 367.843 144.073C369.346 141.511 370.139 138.593 370.139 135.622Z" fill="#E1E4E5"/>
<path d="M331.243 103.549H275.894M331.243 77.618H275.894M331.243 128.733H275.894" stroke="#262E36" stroke-width="2.677" stroke-linecap="round" stroke-linejoin="round"/>
<path d="M6.72278 683H958.277C961.99 683 965 686.806 965 691.5C965 696.194 961.99 700 958.277 700H6.72278C3.00983 700 -6.10352e-05 696.194 -6.10352e-05 691.5C-6.10352e-05 686.806 3.00983 683 6.72278 683Z" fill="#E1E4E5"/>
<path d="M237.761 455.254L271.94 489.433C273.184 490.678 273.185 492.696 271.94 493.94C270.696 495.185 268.678 495.184 267.433 493.94L233.254 459.761C232.009 458.516 232.009 456.498 233.253 455.253C234.498 454.009 236.516 454.009 237.761 455.254Z" fill="#E1E4E5"/>
<path d="M241.107 479.725L250.963 489.581C252.208 490.826 252.208 492.844 250.964 494.089C249.719 495.333 247.701 495.333 246.457 494.088L236.6 484.231C235.355 482.986 235.355 480.968 236.599 479.724C237.844 478.479 239.862 478.48 241.107 479.725Z" fill="#E1E4E5"/>
<path d="M419.291 382.633L439.601 376.455L527.894 373.857L547.807 379.292L545.209 427.812L500.16 456.555L456.465 455.679L428.995 430.649L422.896 405.833L419.291 382.633Z" fill="#F8AE9D"/>
<path d="M674.201 460.663C667.812 447.485 661.687 436.907 656.224 428.555C645.501 412.097 629.099 400.159 610.142 395.014L538.129 375.5C538.129 375.5 534.39 447.459 484.861 447.459C435.332 447.459 425.68 379.98 425.68 379.98L342.346 413.229C339.483 414.342 320.153 421.024 297.669 469.253C276.245 515.176 266.885 538.695 266.885 538.695L352.74 563.485L358.095 640.695L355.993 681.883L616.851 684.206L615.393 633.801L616.479 556.512L619.741 561.789L706.469 527.002C706.469 527.002 695.306 504.093 674.201 460.663Z" fill="url(#paint1_linear_513_69)"/>
<path d="M476.446 408.304C497.581 407.914 521.591 366.69 521.591 366.69L522.969 260.795C524.074 230.295 505.101 204.308 470.904 204.166L467.73 204.308C435.902 205.827 410.697 228.879 409.846 257.287C409.041 283.725 408.558 312.932 409.593 327.042C411.755 356.25 445.078 351.32 445.078 351.32C445.147 351.32 444.987 366.033 445.078 374.627C445.331 393.926 467.96 408.961 476.446 408.304Z" fill="url(#paint2_linear_513_69)"/>
<path d="M512.41 266.604C512.992 266.326 535.757 258.725 536.265 281.21C536.774 303.696 512.943 299.549 512.895 298.903C512.847 298.258 512.41 266.604 512.41 266.604ZM274.283 540.843L239.364 610.921C235.462 618.75 233.636 627.451 234.06 636.188C235.386 663.392 257.843 684.789 285.074 684.789L386.034 683.202L389.594 633.299L313.392 614.925L342.267 560.331L274.283 540.843ZM702.042 528.779C702.042 528.779 723.704 593.13 747.329 651.621C747.806 652.787 748.335 654.962 748.76 656.154C754.09 670.658 738.049 684.789 721.847 684.789L585.324 684.551L582.5 635.5L670.25 622.136L639.494 553.835L702.042 528.779Z" fill="url(#paint3_linear_513_69)"/>
<path d="M504.455 307.571H523.016V387.114H504.455V307.571Z" fill="#F8AE9D"/>
<path d="M511.741 236.498C508.396 240.813 502.498 241.763 497.639 242.618C491.108 243.764 487.876 246.153 484.486 252.565C482.34 256.66 480.192 261.147 476.35 263.366C473.227 265.178 473.34 260.559 472.845 256.983C472.799 256.666 472.735 256.352 472.654 256.042C471.898 253.187 468.858 253.673 467.967 256.49C467.153 259.026 465.412 261.172 463.197 262.366C462.837 262.561 462.451 262.731 462.068 262.658C461.549 262.586 461.142 262.098 460.803 261.66C460.092 260.741 459.386 259.572 458.657 258.337C456.262 254.275 451.727 255.726 449.05 259.611C447.379 262.025 445.39 264.512 442.656 265.072C441.775 265.267 440.667 265.122 440.26 264.269C439.739 263.219 440.553 262.171 440.417 261.098C440.305 260.099 439.875 259.659 439.401 258.806C437.539 255.495 433.277 255.376 430.657 258.127C428.833 260.039 426.933 261.876 424.96 263.634C424.125 264.366 422.905 265.097 422.068 264.366C421.615 263.976 421.503 263.316 421.412 262.683C420.937 259.587 420.486 256.49 420.012 253.394C419.74 251.663 418.813 249.395 417.231 249.834C416.464 250.054 416.011 250.858 415.583 251.59C415.062 252.516 405.774 263.073 405.594 262.268C404.147 256.27 401.186 250.81 399.74 244.812C390.384 206.216 431.898 175.178 463.605 175.008C470.655 174.96 477.096 175.074 483.943 176.708C491.244 178.463 498.95 181.251 505.571 185.175C514.859 190.661 521.888 200.633 520.08 212.531" fill="#6B6B6B"/>
<path d="M495.067 223.45C490.401 228.574 489.166 235.78 488.731 242.588C488.092 252.854 488.96 263.521 493.855 272.635C495.248 275.231 496.278 288.069 498.428 287.36C499.114 287.139 499 277.181 500.807 271.815C503.597 263.499 516.449 260.329 522.236 265.584C531.474 273.944 526.055 284.1 522.99 290.42C521.159 294.234 518.256 298.514 517.752 302.55C517.136 307.718 516.952 326.545 520.429 330.936C523.333 334.616 526.42 316.832 529.05 313.327C548.512 287.228 567.174 220.767 533.944 206.353C528.89 204.157 513.293 203.027 508.559 205.82" fill="#6B6B6B"/>
<path d="M428.411 638.124C428.438 638.283 431.541 637.303 436.71 636.984C441.854 636.64 449.146 637.223 456.41 640.325C463.676 643.428 469.165 648.28 472.452 652.23C475.793 656.181 477.224 659.123 477.357 659.018C477.41 658.991 477.092 658.249 476.376 656.976C475.66 655.703 474.52 653.901 472.903 651.859C469.667 647.749 464.152 642.712 456.729 639.556C449.305 636.402 441.854 635.871 436.658 636.402C434.059 636.64 431.964 637.063 430.559 637.435C429.154 637.779 428.385 638.071 428.411 638.124V638.124ZM433.078 627.387C433.131 627.598 436.286 626.034 441.721 625.874C447.131 625.636 454.74 627.279 461.846 631.576C468.952 635.897 474.282 641.36 478.046 645.283C479.85 647.192 481.334 648.783 482.501 650.003C483.561 651.117 484.145 651.725 484.198 651.672C484.251 651.646 483.72 650.957 482.74 649.791C481.359 648.128 479.944 646.492 478.497 644.886C474.812 640.855 469.509 635.261 462.271 630.858C455.031 626.484 447.21 624.894 441.695 625.292C438.937 625.451 436.737 625.953 435.279 626.458C434.536 626.669 434.006 626.935 433.634 627.094C433.263 627.253 433.078 627.359 433.078 627.387Z" fill="#EB996E"/>
<path d="M555.629 639.503C555.601 639.662 552.499 638.681 547.33 638.362C542.185 638.018 534.894 638.602 527.628 641.703C520.364 644.807 514.875 649.659 511.587 653.608C508.246 657.559 506.814 660.502 506.682 660.396C506.629 660.37 506.948 659.628 507.664 658.355C508.687 656.562 509.848 654.851 511.137 653.238C514.371 649.128 519.886 644.091 527.311 640.935C534.736 637.78 542.185 637.25 547.383 637.78C549.44 637.959 551.479 638.304 553.48 638.814C554.885 639.186 555.655 639.45 555.629 639.503V639.503ZM550.962 628.765C550.909 628.977 547.755 627.413 542.319 627.253C536.91 627.015 529.3 628.658 522.194 632.955C515.089 637.276 509.759 642.738 505.994 646.661C504.191 648.571 502.706 650.161 501.539 651.381C500.479 652.496 499.895 653.104 499.843 653.051C499.79 653.025 500.319 652.335 501.301 651.17C502.681 649.506 504.095 647.87 505.543 646.265C509.228 642.234 514.531 636.64 521.769 632.239C529.009 627.863 536.83 626.272 542.345 626.671C545.103 626.83 547.303 627.332 548.761 627.836C549.504 628.05 550.034 628.314 550.405 628.473C550.777 628.632 550.962 628.739 550.962 628.765V628.765Z" fill="#EB996E"/>
<path d="M587.525 686.036H381.799C378.985 686.039 376.279 684.953 374.248 683.006C372.217 681.058 371.018 678.401 370.902 675.589L364.724 534.002C364.458 527.797 369.416 522.601 375.621 522.601H593.306C599.51 522.601 604.468 527.771 604.229 533.975L598.449 675.589C598.211 681.422 593.385 686.036 587.525 686.036Z" fill="#262E36"/>
<path d="M505.252 606.938C505.254 609.701 504.712 612.438 503.655 614.992C502.599 617.545 501.049 619.865 499.095 621.819C497.141 623.774 494.821 625.323 492.268 626.38C489.715 627.436 486.978 627.979 484.214 627.977C481.451 627.979 478.714 627.437 476.16 626.38C473.607 625.324 471.286 623.774 469.332 621.82C467.378 619.866 465.829 617.546 464.772 614.992C463.716 612.438 463.173 609.702 463.175 606.938C463.173 604.175 463.716 601.438 464.773 598.885C465.829 596.331 467.379 594.011 469.333 592.057C471.287 590.103 473.607 588.554 476.161 587.497C478.714 586.441 481.451 585.898 484.214 585.901C495.846 585.901 505.252 595.356 505.252 606.938Z" fill="#EEEEEE"/>
<path d="M848.422 450.118C848.422 450.118 873.49 513.455 879.889 618.357" stroke="#19752D" stroke-width="2.5" stroke-miterlimit="10"/>
<path d="M812.523 501.175C812.752 494.002 814.38 486.669 817.246 479.815C854.565 492.905 843.63 477.531 821.051 472.322C827.126 462.157 836.341 453.91 848.398 450.095C863.001 445.48 880.308 455.989 891.472 471.501C873.912 478.787 877.649 501.974 895.85 478.376C899.495 484.91 901.994 491.946 902.841 498.959C904.973 516.229 897.019 533.179 871.276 540.718C829.785 552.939 811.607 528.199 812.523 501.175V501.175ZM838.61 492.357C827.653 492.677 842.989 504.944 851.196 499.005C856.33 495.258 849.59 492.036 838.61 492.357Z" fill="#19752D"/>
<path d="M890.571 510.266C896.303 534.458 902.698 520.979 895.776 505.08C907.031 495.44 923.536 490.415 941.851 495.783C956.637 500.123 963.652 510.586 964.798 522.373C941.118 521.231 935.342 536.354 964.913 527.97C963.514 554.332 935.663 583.459 900.956 565.525C875.488 552.368 876.199 527.079 890.571 510.266ZM924.888 542.521C937.451 545.88 938.069 536.628 927.089 535.349C919.272 534.435 912.326 539.164 924.888 542.521Z" fill="#0B8525"/>
<path d="M936.608 501.197C936.608 501.197 891.871 540.552 891.656 618.742" stroke="#0B8525" stroke-width="2.5" stroke-miterlimit="10"/>
<path d="M791.699 561.928C779.504 546.027 779.205 520.008 788.581 512.241C797.453 504.886 808.777 503.994 819.689 507.01C816.915 523.549 830.439 530.814 827.208 509.751C852.63 521.105 871.633 551.876 843.346 567.09C821.798 578.649 806.392 575.794 796.376 566.999C832.87 564.669 814.186 554.823 791.699 561.928ZM801.235 535.177C790.598 538.306 792.089 541.642 803.872 542.532C815.631 543.424 814.966 531.179 801.235 535.177Z" fill="#0B8525"/>
<path d="M795.857 513.6C795.857 513.6 857.81 542.285 861.029 619.694" stroke="#0B8525" stroke-width="2.5" stroke-miterlimit="10"/>
<path d="M930.578 622.827H822.245L837.166 664.964C840.986 675.747 851.235 682.984 862.726 682.984H890.119C901.612 682.984 911.859 675.768 915.678 664.965L930.578 622.827Z" fill="#574F4F"/>
<path d="M935.626 621.055V614.889H816.937V621.055H935.626Z" fill="#E1E4E5" stroke="#E1E4E5" stroke-width="4"/>
<defs>
<linearGradient id="paint0_linear_513_69" x1="554.199" y1="900.501" x2="567.226" y2="-627.775" gradientUnits="userSpaceOnUse">
<stop stop-color="#424242" stop-opacity="0.5"/>
<stop offset="1" stop-color="#EDEDED" stop-opacity="0.5"/>
</linearGradient>
<linearGradient id="paint1_linear_513_69" x1="261" y1="330.5" x2="746.5" y2="684" gradientUnits="userSpaceOnUse">
<stop stop-color="#5A6EF2"/>
<stop offset="1" stop-color="#561eaf"/>
</linearGradient>
<linearGradient id="paint2_linear_513_69" x1="311.5" y1="254" x2="499.5" y2="324.5" gradientUnits="userSpaceOnUse">
<stop stop-color="#F88267"/>
<stop offset="1" stop-color="#F8AE9D"/>
</linearGradient>
<linearGradient id="paint3_linear_513_69" x1="492" y1="494.5" x2="491.901" y2="684.789" gradientUnits="userSpaceOnUse">
<stop stop-color="#F8AE9D"/>
<stop offset="1" stop-color="#FC8469"/>
</linearGradient>
</defs>
</svg>
