<svg width="857" height="438" viewBox="0 0 857 438" fill="none" xmlns="http://www.w3.org/2000/svg">
<path fill-rule="evenodd" clip-rule="evenodd" d="M640.18 0C688.47 0 727.974 39.2023 727.974 87.1238C727.974 135.045 688.47 174.247 640.18 174.247C630.493 174.247 622.559 182.122 622.559 191.735C622.559 201.348 630.493 209.221 640.18 209.221H686.119C709.676 209.221 728.953 228.352 728.953 251.73C728.953 275.107 709.676 294.236 686.119 294.236C665.745 294.236 649.074 310.781 649.074 331C649.074 367.888 618.661 398.07 581.487 398.07H184.735C136.445 398.07 96.9415 358.868 96.9415 310.946C96.9415 263.025 136.445 223.823 184.735 223.823H193.227C202.915 223.823 210.849 215.959 210.849 206.335C210.849 196.722 202.924 188.849 193.227 188.849H136.064C112.505 188.849 93.2295 169.718 93.2295 146.341C93.2295 122.992 112.457 103.882 135.974 103.834H181.973C202.347 103.834 219.019 87.2894 219.019 67.0704C219.019 30.1816 249.432 0 286.605 0H640.18V0Z" fill="url(#paint0_linear_512_35)"/>
<path fill-rule="evenodd" clip-rule="evenodd" d="M578.995 79.5315H583.838C585.009 79.5315 585.952 78.5792 585.952 77.4173V72.5745C585.952 71.4035 585 70.4603 583.838 70.4603H578.995C578.435 70.4624 577.899 70.6857 577.503 71.0818C577.107 71.4778 576.883 72.0144 576.881 72.5745V77.4173C576.88 77.6951 576.935 77.9704 577.041 78.2272C577.147 78.484 577.302 78.7173 577.499 78.9138C577.695 79.1102 577.929 79.2659 578.185 79.3719C578.442 79.4779 578.717 79.5321 578.995 79.5315V79.5315ZM595.788 79.5315H600.631C601.191 79.5294 601.728 79.306 602.124 78.91C602.52 78.5139 602.743 77.9774 602.745 77.4173V72.5745C602.745 71.4035 601.793 70.4603 600.631 70.4603H595.788C595.228 70.4624 594.691 70.6857 594.295 71.0818C593.899 71.4778 593.676 72.0144 593.674 72.5745V77.4173C593.676 77.9774 593.899 78.5139 594.295 78.91C594.691 79.306 595.228 79.5294 595.788 79.5315V79.5315ZM612.591 79.5315H617.434C617.994 79.5294 618.531 79.306 618.927 78.91C619.323 78.5139 619.546 77.9774 619.548 77.4173V72.5745C619.548 71.4035 618.596 70.4603 617.434 70.4603H612.591C612.031 70.4624 611.495 70.6857 611.099 71.0818C610.703 71.4778 610.479 72.0144 610.477 72.5745V77.4173C610.476 77.6951 610.531 77.9704 610.637 78.2272C610.743 78.484 610.898 78.7173 611.095 78.9138C611.291 79.1102 611.525 79.2659 611.781 79.3719C612.038 79.4779 612.313 79.5321 612.591 79.5315V79.5315ZM629.384 79.5315H634.227C634.787 79.5294 635.324 79.306 635.72 78.91C636.116 78.5139 636.339 77.9774 636.341 77.4173V72.5745C636.341 71.4035 635.389 70.4603 634.227 70.4603H629.384C628.213 70.4603 627.26 71.4126 627.26 72.5745V77.4173C627.266 77.9779 627.492 78.5137 627.889 78.9091C628.287 79.3046 628.823 79.5281 629.384 79.5315V79.5315ZM646.178 79.5315H651.021C652.192 79.5315 653.146 78.5792 653.146 77.4173V72.5745C653.146 71.4035 652.192 70.4603 651.021 70.4603H646.178C645.618 70.4624 645.082 70.6857 644.686 71.0818C644.29 71.4778 644.066 72.0144 644.064 72.5745V77.4173C644.066 77.9774 644.29 78.5139 644.686 78.91C645.082 79.306 645.618 79.5294 646.178 79.5315V79.5315ZM596.404 61.2209H601.247C602.407 61.2209 603.361 60.2674 603.361 59.1068V54.2523C603.359 53.6924 603.135 53.1562 602.739 52.7605C602.343 52.3647 601.807 52.1415 601.247 52.1394H596.404C595.232 52.1394 594.29 53.0917 594.29 54.2523V59.0964C594.288 59.375 594.342 59.6512 594.447 59.9091C594.553 60.1669 594.708 60.4013 594.905 60.5988C595.101 60.7963 595.335 60.953 595.592 61.0597C595.849 61.1665 596.125 61.2213 596.404 61.2209V61.2209ZM613.197 61.2209H618.04C618.6 61.2189 619.136 60.9955 619.532 60.5995C619.928 60.2034 620.152 59.6669 620.154 59.1068V54.2523C620.151 53.6924 619.928 53.1562 619.532 52.7605C619.136 52.3647 618.599 52.1415 618.04 52.1394H613.197C612.637 52.1415 612.101 52.3647 611.705 52.7605C611.309 53.1562 611.085 53.6924 611.083 54.2523V59.0964C611.081 59.375 611.134 59.6512 611.24 59.9091C611.345 60.1669 611.501 60.4013 611.697 60.5988C611.894 60.7963 612.128 60.953 612.385 61.0597C612.642 61.1665 612.918 61.2213 613.197 61.2209V61.2209ZM629.99 61.2209H634.832C636.005 61.2209 636.957 60.2674 636.957 59.1068V54.2523C636.957 53.0917 636.005 52.1394 634.832 52.1394H629.99C629.43 52.1415 628.893 52.3647 628.497 52.7605C628.101 53.1562 627.878 53.6924 627.875 54.2523V59.0964C627.875 60.2674 628.829 61.2209 629.99 61.2209V61.2209ZM612.591 99.2044H617.434C617.994 99.2023 618.531 98.9789 618.927 98.5829C619.323 98.1869 619.546 97.6503 619.548 97.0903V92.2461C619.548 91.0752 618.596 90.1319 617.434 90.1319H612.591C612.031 90.134 611.495 90.3574 611.099 90.7534C610.703 91.1495 610.479 91.686 610.477 92.2461V97.0903C610.476 97.3681 610.531 97.6433 610.637 97.9001C610.743 98.1569 610.898 98.3902 611.095 98.5867C611.291 98.7832 611.525 98.9388 611.781 99.0448C612.038 99.1508 612.313 99.2051 612.591 99.2044V99.2044ZM629.384 99.2044H634.227C634.787 99.2023 635.324 98.9789 635.72 98.5829C636.116 98.1869 636.339 97.6503 636.341 97.0903V92.2461C636.341 91.0752 635.389 90.1319 634.227 90.1319H629.384C628.213 90.1319 627.26 91.0855 627.26 92.2461V97.0903C627.266 97.6509 627.492 98.1866 627.889 98.5821C628.287 98.9775 628.823 99.201 629.384 99.2044V99.2044Z" fill="#262E36"/>
<path d="M705.852 127.208C705.852 127.208 738.377 209.389 746.681 345.5" stroke="#19752D" stroke-width="2.5" stroke-miterlimit="10"/>
<path d="M659.273 193.455C659.571 184.148 661.682 174.633 665.401 165.741C713.823 182.725 699.634 162.776 670.338 156.019C678.22 142.829 690.176 132.129 705.822 127.179C724.769 121.191 747.225 134.827 761.709 154.953C738.926 164.407 743.774 194.492 767.391 163.874C772.12 172.351 775.362 181.48 776.462 190.58C779.228 212.988 768.907 234.981 735.505 244.762C681.671 260.62 658.084 228.519 659.273 193.455V193.455ZM693.121 182.013C678.904 182.429 698.803 198.346 709.451 190.639C716.113 185.778 707.368 181.598 693.121 182.013Z" fill="#19752D"/>
<path d="M760.541 205.251C767.978 236.641 776.276 219.152 767.294 198.523C781.898 186.014 803.313 179.494 827.077 186.459C846.262 192.091 855.363 205.666 856.851 220.96C826.126 219.478 818.631 239.1 857 228.221C855.185 262.427 819.048 300.219 774.015 276.95C740.971 259.878 741.893 227.066 760.541 205.251ZM805.068 247.103C821.368 251.46 822.17 239.456 807.923 237.796C797.781 236.611 788.768 242.746 805.068 247.103Z" fill="#0B8525"/>
<path d="M820.274 193.484C820.274 193.484 762.228 244.548 761.948 346" stroke="#0B8525" stroke-width="2.5" stroke-miterlimit="10"/>
<path d="M632.254 272.282C616.43 251.652 616.043 217.891 628.208 207.814C639.719 198.27 654.412 197.114 668.571 201.026C664.971 222.486 682.52 231.912 678.326 204.583C711.312 219.315 735.969 259.24 699.266 278.98C671.307 293.979 651.319 290.274 638.322 278.863C685.673 275.839 661.431 263.064 632.254 272.282ZM644.627 237.573C630.825 241.634 632.76 245.961 648.048 247.117C663.306 248.274 662.443 232.386 644.627 237.573Z" fill="#0B8525"/>
<path d="M637.649 209.577C637.649 209.577 718.033 246.795 722.21 347.235" stroke="#0B8525" stroke-width="2.5" stroke-miterlimit="10"/>
<path d="M812.45 351.3H671.888L691.248 405.973C696.205 419.964 709.503 429.354 724.412 429.354H759.955C774.866 429.354 788.162 419.992 793.118 405.974L812.45 351.3Z" fill="#574F4F"/>
<path d="M819 349V341H665V349H819Z" fill="#E1E4E5" stroke="#E1E4E5" stroke-width="4"/>
<path d="M118.457 352.409L124.376 426.036H165.338L171.271 352.409H118.457Z" fill="#676841"/>
<path d="M115.07 345.77H175.285V356.501H115.07V345.77ZM119.196 345.77H171.16L168.126 333.705H122.243L119.196 345.77Z" fill="#EEEEEE"/>
<path d="M133.134 389.907C133.134 391.489 133.445 393.055 134.05 394.516C134.655 395.978 135.542 397.305 136.661 398.424C137.779 399.542 139.107 400.429 140.568 401.034C142.029 401.639 143.596 401.951 145.177 401.95C146.759 401.951 148.325 401.639 149.786 401.034C151.248 400.429 152.575 399.542 153.694 398.424C154.812 397.305 155.699 395.978 156.304 394.516C156.909 393.055 157.221 391.489 157.22 389.907C157.221 388.325 156.91 386.759 156.305 385.298C155.7 383.836 154.812 382.509 153.694 381.39C152.576 380.272 151.248 379.385 149.786 378.78C148.325 378.175 146.759 377.863 145.177 377.864C143.596 377.864 142.029 378.175 140.568 378.78C139.107 379.385 137.779 380.272 136.661 381.391C135.542 382.509 134.655 383.837 134.05 385.298C133.445 386.759 133.134 388.325 133.134 389.907V389.907Z" fill="#EEEEEE"/>
<path fill-rule="evenodd" clip-rule="evenodd" d="M241.191 113.715V52.3413C241.191 45.9834 236.052 40.8338 229.707 40.8338H160.807C154.462 40.8338 149.323 45.9834 149.323 52.3413V113.715C149.322 115.766 149.87 117.78 150.908 119.548C151.947 121.317 153.44 122.775 155.232 123.773L189.682 142.949C191.387 143.9 193.307 144.399 195.259 144.399C197.212 144.399 199.132 143.9 200.837 142.949L235.289 123.773C237.078 122.773 238.569 121.314 239.606 119.546C240.644 117.778 241.191 115.765 241.191 113.715Z" fill="#E1E4E5"/>
<path d="M214.352 91.5837H176.16M214.352 73.6911H176.16M214.352 108.961H176.16" stroke="#262E36" stroke-width="2.677" stroke-linecap="round" stroke-linejoin="round"/>
<path d="M5.8313 425.969H831.205C834.425 425.969 837.036 428.58 837.036 431.8C837.036 435.02 834.425 437.631 831.205 437.631H5.8313C2.61072 437.631 0 435.02 0 431.8C0 428.58 2.61072 425.969 5.8313 425.969Z" fill="#E1E4E5"/>
<path d="M192.757 280.605L216.341 304.189C217.2 305.048 217.2 306.441 216.341 307.3C215.482 308.158 214.09 308.158 213.231 307.299L189.647 283.715C188.788 282.856 188.788 281.464 189.647 280.605C190.505 279.746 191.898 279.746 192.757 280.605Z" fill="#E1E4E5"/>
<path d="M195.066 297.49L201.867 304.292C202.726 305.151 202.726 306.543 201.867 307.402C201.009 308.261 199.616 308.26 198.757 307.401L191.956 300.6C191.097 299.741 191.097 298.349 191.955 297.49C192.814 296.631 194.207 296.632 195.066 297.49Z" fill="#E1E4E5"/>
<path d="M365.038 190.8L380.933 185.965L450.034 183.931L465.619 188.185L463.585 226.158L428.329 248.653L394.132 247.967L372.633 228.378L367.86 208.956L365.038 190.8Z" fill="#F8AE9D"/>
<path d="M564.538 251.868C559.537 241.555 554.743 233.275 550.468 226.739C542.076 213.859 529.24 204.516 514.403 200.489L458.044 185.217C458.044 185.217 455.118 241.534 416.355 241.534C377.593 241.534 370.039 188.723 370.039 188.723L304.82 214.745C302.579 215.616 287.451 220.845 269.854 258.591C253.087 294.531 245.762 312.937 245.762 312.937L312.954 332.339L317.145 392.765L315.5 425L519.654 426.818L518.513 387.37L519.363 326.881L521.916 331.011L589.791 303.786C589.791 303.786 581.055 285.857 564.538 251.868Z" fill="#0074E0"/>
<path d="M409.77 210.89C426.31 210.585 445.101 178.322 445.101 178.322L446.18 95.4456C447.044 71.5755 432.196 51.2375 405.433 51.1262L402.948 51.2375C378.039 52.4265 358.313 70.4679 357.647 92.7001C357.017 113.391 356.639 136.25 357.449 147.293C359.141 170.151 385.22 166.293 385.22 166.293C385.274 166.293 385.149 177.808 385.22 184.533C385.418 199.638 403.128 211.404 409.77 210.89Z" fill="#F8AE9D"/>
<path d="M437.916 99.9923C438.371 99.775 456.188 93.8259 456.585 111.423C456.984 129.021 438.333 125.776 438.295 125.27C438.258 124.766 437.916 99.9923 437.916 99.9923V99.9923ZM251.552 314.618L224.223 369.463C221.169 375.591 219.74 382.4 220.072 389.238C221.11 410.528 238.686 427.275 259.997 427.275L339.011 426.033L341.797 386.977L282.159 372.597L304.758 329.87L251.552 314.618V314.618ZM586.326 305.177C586.326 305.177 603.28 355.54 621.769 401.316C622.143 402.228 622.557 403.931 622.889 404.864C627.061 416.215 614.507 427.275 601.827 427.275L494.98 427.088V392.351L561.446 378.24L537.375 324.787L586.326 305.177Z" fill="#F8AE9D"/>
<path d="M517.454 385.98H502.118C502.118 385.98 467.506 373.468 460.389 374.671C453.976 375.75 430.507 391.334 425.901 394.425C425.382 394.779 425.008 395.256 424.781 395.837C424.329 397.058 424.369 398.406 424.891 399.598C425.414 400.79 426.378 401.733 427.582 402.228L428.059 402.436L427.851 403.141C427.582 404.013 427.456 404.988 427.499 405.943C427.665 409.242 432.105 410.237 433.786 407.395L432.893 408.972C432.541 409.615 432.354 410.342 432.396 411.068L432.479 412.5C432.524 413.275 432.801 414.018 433.275 414.633C433.749 415.247 434.397 415.705 435.135 415.945C435.837 416.178 436.591 416.202 437.305 416.014C438.02 415.826 438.665 415.434 439.16 414.886C442.127 411.608 448.56 405.05 452.918 404.325C456.778 403.68 463.231 403.597 467.132 403.618C468.099 403.62 469.043 403.914 469.839 404.462C470.635 405.011 471.247 405.787 471.594 406.69C469.021 406.876 451.03 416.255 444.659 419.618C442.688 420.655 441.215 422.522 440.965 424.743C440.738 426.735 441.734 428.831 445.676 427.897C454.142 425.925 469.353 418.932 469.353 418.932C469.353 418.932 477.197 416.691 482.281 420.282C489.44 425.324 492.718 427.17 498.86 425.137C505.004 423.103 509.527 420.178 509.527 420.178L521.624 418.973C521.666 418.973 533.1 390.379 517.454 385.98V385.98Z" fill="#F8AE9D"/>
<path d="M431.69 132.054H446.216V194.306H431.69V132.054Z" fill="#F8AE9D"/>
<path d="M437.392 76.4302C434.775 79.8071 430.158 80.5511 426.355 81.22C421.245 82.1166 418.715 83.9862 416.062 89.0051C414.382 92.2099 412.701 95.7214 409.694 97.4578C407.25 98.8758 407.338 95.2608 406.952 92.4622C406.915 92.2142 406.865 91.9685 406.801 91.726C406.21 89.4916 403.831 89.872 403.133 92.0767C402.497 94.0614 401.134 95.7408 399.401 96.675C399.119 96.8277 398.817 96.9609 398.517 96.904C398.111 96.8471 397.792 96.4654 397.527 96.1225C396.971 95.4032 396.418 94.4884 395.848 93.5219C393.973 90.3429 390.424 91.4789 388.329 94.5195C387.021 96.4085 385.464 98.3544 383.324 98.793C382.635 98.9457 381.768 98.8318 381.45 98.1642C381.042 97.3426 381.679 96.5223 381.573 95.6826C381.485 94.9011 381.148 94.557 380.777 93.8894C379.32 91.2978 375.984 91.2046 373.934 93.3576C372.507 94.8541 371.019 96.292 369.475 97.6674C368.822 98.2406 367.867 98.8124 367.212 98.2406C366.858 97.9352 366.77 97.4189 366.698 96.9234C366.327 94.5 365.974 92.0767 365.602 89.6533C365.39 88.2986 364.664 86.5235 363.426 86.8676C362.826 87.0397 362.471 87.6685 362.136 88.2417C361.729 88.9663 354.46 97.2288 354.319 96.5987C353.187 91.9046 350.869 87.631 349.737 82.9369C342.415 52.7308 374.905 28.4401 399.72 28.3068C405.237 28.2693 410.278 28.3586 415.637 29.6369C421.351 31.011 427.381 33.1924 432.563 36.264C439.832 40.557 445.334 48.3615 443.918 57.6733" fill="#6B6B6B"/>
<path d="M424.342 66.2189C420.691 70.2285 419.725 75.8684 419.384 81.1965C418.884 89.2313 419.563 97.5792 423.394 104.712C424.485 106.743 425.291 116.791 426.973 116.236C427.51 116.063 427.42 108.27 428.835 104.07C431.019 97.5623 441.077 95.0807 445.606 99.1939C452.836 105.737 448.594 113.685 446.196 118.631C444.763 121.616 442.491 124.966 442.097 128.124C441.614 132.169 441.47 146.903 444.191 150.34C446.465 153.22 448.88 139.302 450.939 136.559C466.17 116.133 480.775 64.119 454.769 52.8379C450.813 51.1197 438.607 50.2347 434.902 52.4213" fill="#6B6B6B"/>
<path d="M372.176 390.753C372.197 390.877 374.626 390.11 378.671 389.861C382.697 389.591 388.404 390.048 394.089 392.475C399.776 394.904 404.071 398.701 406.643 401.792C409.258 404.885 410.379 407.188 410.482 407.105C410.524 407.084 410.275 406.503 409.715 405.507C409.155 404.511 408.262 403.1 406.997 401.503C404.464 398.286 400.148 394.344 394.339 391.874C388.528 389.405 382.697 388.99 378.63 389.405C376.596 389.591 374.957 389.923 373.857 390.214C372.757 390.483 372.156 390.712 372.176 390.753V390.753ZM375.829 382.35C375.87 382.515 378.339 381.291 382.593 381.166C386.827 380.98 392.782 382.266 398.343 385.628C403.904 389.01 408.076 393.285 411.022 396.356C412.433 397.85 413.595 399.095 414.509 400.05C415.338 400.922 415.795 401.398 415.836 401.356C415.878 401.336 415.462 400.796 414.695 399.884C413.614 398.582 412.507 397.302 411.375 396.045C408.491 392.891 404.34 388.512 398.676 385.067C393.01 381.643 386.889 380.399 382.572 380.71C380.414 380.835 378.692 381.228 377.551 381.623C376.97 381.788 376.555 381.996 376.264 382.121C375.974 382.245 375.829 382.328 375.829 382.35Z" fill="#EB996E"/>
<path d="M471.74 391.832C471.718 391.957 469.291 391.189 465.245 390.94C461.218 390.67 455.513 391.127 449.826 393.554C444.141 395.983 439.845 399.78 437.272 402.871C434.657 405.964 433.536 408.267 433.433 408.184C433.392 408.163 433.641 407.582 434.201 406.586C435.002 405.183 435.911 403.844 436.92 402.582C439.451 399.365 443.767 395.423 449.578 392.953C455.388 390.484 461.218 390.069 465.286 390.484C466.896 390.624 468.492 390.894 470.058 391.293C471.158 391.584 471.761 391.791 471.74 391.832V391.832ZM468.088 383.429C468.046 383.594 465.577 382.37 461.323 382.245C457.09 382.059 451.134 383.345 445.573 386.707C440.012 390.09 435.841 394.364 432.895 397.435C431.483 398.929 430.321 400.174 429.408 401.129C428.578 402.001 428.122 402.477 428.08 402.435C428.039 402.415 428.453 401.875 429.221 400.963C430.301 399.661 431.408 398.381 432.541 397.124C435.425 393.97 439.576 389.591 445.241 386.147C450.906 382.722 457.028 381.478 461.344 381.789C463.502 381.914 465.224 382.307 466.365 382.702C466.946 382.869 467.362 383.076 467.651 383.2C467.943 383.324 468.088 383.408 468.088 383.429V383.429Z" fill="#EB996E"/>
<path d="M496.702 428.25H335.696C333.494 428.252 331.377 427.403 329.787 425.879C328.197 424.355 327.259 422.275 327.168 420.074L322.333 309.264C322.125 304.408 326.005 300.342 330.861 300.342H501.227C506.083 300.342 509.963 304.388 509.775 309.243L505.252 420.074C505.066 424.639 501.289 428.25 496.702 428.25Z" fill="#262E36"/>
<path d="M432.314 366.346C432.315 368.509 431.891 370.651 431.064 372.649C430.237 374.648 429.025 376.463 427.496 377.993C425.966 379.522 424.151 380.735 422.152 381.562C420.154 382.389 418.012 382.813 415.849 382.812C413.686 382.813 411.544 382.389 409.546 381.562C407.547 380.735 405.732 379.522 404.202 377.993C402.673 376.464 401.46 374.648 400.633 372.649C399.806 370.651 399.382 368.509 399.384 366.346C399.382 364.183 399.807 362.042 400.634 360.043C401.46 358.045 402.673 356.229 404.203 354.7C405.732 353.171 407.548 351.958 409.546 351.131C411.545 350.305 413.687 349.88 415.849 349.882C424.953 349.882 432.314 357.281 432.314 366.346Z" fill="#EEEEEE"/>
<defs>
<linearGradient id="paint0_linear_512_35" x1="397.537" y1="621.252" x2="405.222" y2="-433.12" gradientUnits="userSpaceOnUse">
<stop stop-color="white" stop-opacity="0.45"/>
<stop offset="1" stop-color="#EEEEEE" stop-opacity="0"/>
</linearGradient>
</defs>
</svg>
