<svg  viewBox="0 0 45 45" fill="none" xmlns="http://www.w3.org/2000/svg">
<path d="M29.4709 7.10067L25.2566 9.90055C24.7082 10.2758 23.9866 9.87168 23.9866 9.20779V2.19368C23.9866 1.47207 24.8814 1.09683 25.3721 1.61639L29.5863 5.83063C29.9616 6.20587 29.9038 6.81203 29.4709 7.10067Z" fill="#7486FF"/>
<path d="M30.4811 25.9205V33.9448C30.4811 36.7736 27.941 37.8416 23.9866 34.8974V28.0565C23.9866 27.508 24.2752 26.9885 24.7082 26.6998L27.941 24.5638C29.009 23.8422 30.4811 24.6216 30.4811 25.9205Z" fill="#4656BF"/>
<path d="M30.4811 33.8583V40.2085C30.4811 43.3259 26.873 44.9135 23.2938 42.4311L16.1354 37.0911C10.1027 32.5883 13.1912 29.7018 15.1251 28.4029C15.154 28.374 15.1829 28.3451 15.2406 28.3163L24.0154 34.8686C27.941 37.7839 30.4811 36.6582 30.4811 33.8583Z" fill="#5A6EF2"/>
<path d="M36.9179 13.9705L15.2694 28.3451C15.2405 28.374 15.2116 28.4029 15.1828 28.4029C13.2488 29.7018 10.3335 32.7326 16.3662 37.2354L9.5253 32.1264C5.48425 28.9801 8.02434 25.1989 9.98713 24.0154L33.3386 8.54397C34.0891 8.05327 35.0994 8.25532 35.619 9.0058L37.4086 11.6902C37.8704 12.4696 37.6683 13.4798 36.9179 13.9705Z" fill="#7486FF"/>
</svg>
